#!OML:ASF H:\Dans Jumps\Project 1\Capture day 1\Session 1\subject.ASF
:FULLY-SPECIFIED
:DEGREES
404
root 0.350415 18.1303 3.56845 9.3547 2.08612 -1.71522
lowerback -1.57354 0.390158 0.665947
upperback 1.98609 0.439101 2.37124
thorax 2.90888 0.206056 2.08261
lowerneck -10.8183 -1.28033 -3.00888
upperneck 31.7741 -1.63277 1.65374
head 12.3017 -0.86118 0.936914
rclavicle -4.47266e-015 0
rhumerus -31.8866 -5.17547 -83.235
rradius 36.8152
rwrist 26.0485
rhand -27.3205 -28.6944
rfingers 7.12502
rthumb -0.729669 -58.6729
lclavicle -4.47266e-015 0
lhumerus -44.8189 -13.3414 91.56
lradius 48.6245
lwrist 36.0733
lhand -26.4143 -10.7074
lfingers 7.12502
lthumb 0.145574 19.2722
rfemur -16.2746 -1.84554 19.8278
rtibia 21.3988
rfoot -6.73555 -0.376636
rtoes 17.6043
lfemur -17.6937 4.83563 -17.5036
ltibia 22.3417
lfoot -2.61986 6.04408
ltoes 2.33536
405
root 0.349453 18.1296 3.60143 9.58975 2.07991 -1.88798
lowerback -1.61628 0.399764 0.72358
upperback 1.9843 0.448429 2.40495
thorax 2.93111 0.211503 2.08581
lowerneck -10.859 -1.27184 -2.98984
upperneck 31.7703 -1.6198 1.642
head 12.308 -0.854545 0.930665
rclavicle -6.36111e-015 -1.66979e-014
rhumerus -31.7257 -5.03824 -83.2907
rradius 36.6073
rwrist 26.0629
rhand -27.3625 -28.8619
rfingers 7.12502
rthumb -0.770241 -58.8403
lclavicle -6.36111e-015 -1.66979e-014
lhumerus -45.1383 -13.5115 91.7856
lradius 47.7655
lwrist 36.1308
lhand -26.0754 -10.3537
lfingers 7.12502
lthumb 0.472909 19.6255
rfemur -16.1226 -1.97973 20.0824
rtibia 20.8211
rfoot -6.69681 -0.384285
rtoes 17.9594
lfemur -17.524 5.05248 -17.3551
ltibia 21.8083
lfoot -2.69714 5.92023
ltoes 1.18776
406
root 0.34806 18.1241 3.63203 9.80153 2.03412 -2.01586
lowerback -1.63348 0.416912 0.730859
upperback 1.99135 0.470123 2.42034
thorax 2.94738 0.22223 2.09875
lowerneck -10.8726 -1.26199 -2.90087
upperneck 31.7529 -1.60066 1.56116
head 12.3015 -0.84565 0.886778
rclavicle 3.27995e-015 -7.95139e-015
rhumerus -31.4813 -5.05226 -83.3127
rradius 36.267
rwrist 26.2307
rhand -27.4117 -29.0338
rfingers 7.12502
rthumb -0.817719 -59.012
lclavicle 3.27995e-015 -7.95139e-015
lhumerus -45.3566 -13.6495 91.9894
lradius 46.728
lwrist 35.8916
lhand -25.8718 -10.0817
lfingers 7.12502
lthumb 0.669604 19.897
rfemur -16.0222 -2.12814 20.2858
rtibia 20.3749
rfoot -6.74503 -0.33096
rtoes 18.2461
lfemur -17.3573 5.31548 -17.2575
ltibia 21.3247
lfoot -2.83681 5.80119
ltoes 0.259511
407
root 0.345927 18.1147 3.66027 9.98755 1.95377 -2.10413
lowerback -1.61781 0.441119 0.692884
upperback 2.00409 0.50363 2.41919
thorax 2.95032 0.238071 2.12025
lowerneck -10.8682 -1.25194 -2.75505
upperneck 31.7341 -1.57768 1.42375
head 12.2895 -0.835503 0.812074
rclavicle 5.56597e-015 8.74653e-015
rhumerus -31.1698 -5.22621 -83.2963
rradius 35.8065
rwrist 26.5754
rhand -27.4771 -29.2015
rfingers 7.12502
rthumb -0.880856 -59.1794
lclavicle 5.56597e-015 8.74653e-015
lhumerus -45.479 -13.7557 92.1709
lradius 45.5278
lwrist 35.3386
lhand -25.8046 -9.77621
lfingers 7.12502
lthumb 0.734455 20.2023
rfemur -15.9558 -2.25679 20.4376
rtibia 20.0369
rfoot -6.86631 -0.233769
rtoes 18.4269
lfemur -17.1996 5.61054 -17.203
ltibia 20.896
lfoot -3.01446 5.68812
ltoes -0.419546
408
root 0.342997 18.1025 3.68605 10.1482 1.85272 -2.14289
lowerback -1.569 0.467628 0.603568
upperback 2.02163 0.542815 2.3994
thorax 2.93895 0.255867 2.15122
lowerneck -10.8665 -1.24157 -2.57907
upperneck 31.7359 -1.55349 1.26036
head 12.2859 -0.82456 0.722528
rclavicle -5.76476e-015 -1.11319e-014
rhumerus -30.7998 -5.54091 -83.2482
rradius 35.2424
rwrist 27.0836
rhand -27.557 -29.3805
rfingers 7.12502
rthumb -0.958072 -59.3581
lclavicle -5.76476e-015 -1.11319e-014
lhumerus -45.5004 -13.8201 92.3122
lradius 44.1725
lwrist 34.4914
lhand -25.7621 -9.42594
lfingers 7.12502
lthumb 0.775541 20.5524
rfemur -15.909 -2.34909 20.5224
rtibia 19.7836
rfoot -7.04402 -0.110005
rtoes 18.4828
lfemur -17.0575 5.90824 -17.1991
ltibia 20.5303
lfoot -3.21688 5.5856
ltoes -0.801987
409
root 0.339236 18.0883 3.70925 10.2881 1.74495 -2.11757
lowerback -1.48722 0.491 0.453806
upperback 2.04077 0.58069 2.35635
thorax 2.9102 0.272026 2.19168
lowerneck -10.8871 -1.2326 -2.43184
upperneck 31.7825 -1.53746 1.13874
head 12.3063 -0.815454 0.652818
rclavicle 0 -7.95139e-016
rhumerus -30.3876 -5.99468 -83.1732
rradius 34.5995
rwrist 27.7422
rhand -27.641 -29.5686
rfingers 7.12502
rthumb -1.03921 -59.5459
lclavicle 0 -7.95139e-016
lhumerus -45.4276 -13.8291 92.4
lradius 42.6777
lwrist 33.3889
lhand -25.702 -9.04907
lfingers 7.12502
lthumb 0.833563 20.929
rfemur -15.8768 -2.39035 20.5207
rtibia 19.5982
rfoot -7.26761 0.0139299
rtoes 18.3857
lfemur -16.9359 6.17959 -17.261
ltibia 20.2292
lfoot -3.43218 5.50543
ltoes -1.05201
410
root 0.334655 18.073 3.72989 10.4082 1.64698 -2.03661
lowerback -1.3736 0.505772 0.258827
upperback 2.05878 0.609166 2.29191
thorax 2.86229 0.282885 2.23464
lowerneck -10.9335 -1.22339 -2.34183
upperneck 31.8817 -1.53037 1.09046
head 12.3552 -0.807934 0.619733
rclavicle 4.77083e-015 1.47101e-014
rhumerus -29.9472 -6.57554 -83.0789
rradius 33.8888
rwrist 28.5131
rhand -27.7273 -29.7463
rfingers 7.12502
rthumb -1.12253 -59.7231
lclavicle 4.77083e-015 1.47101e-014
lhumerus -45.2677 -13.7697 92.4186
lradius 41.0633
lwrist 32.0986
lhand -25.5641 -8.71056
lfingers 7.12502
lthumb 0.966723 21.267
rfemur -15.8562 -2.37272 20.441
rtibia 19.4739
rfoot -7.52641 0.115733
rtoes 18.1949
lfemur -16.8323 6.39888 -17.3749
ltibia 19.9834
lfoot -3.65295 5.45417
ltoes -1.15128
411
root 0.329402 18.0572 3.74855 10.5097 1.57323 -1.91777
lowerback -1.23986 0.507025 0.0424159
upperback 2.07941 0.620262 2.2106
thorax 2.80625 0.284896 2.27136
lowerneck -11.0169 -1.20814 -2.30753
upperneck 32.0305 -1.52519 1.11911
head 12.4337 -0.798187 0.625364
rclavicle -3.97569e-016 -4.37326e-015
rhumerus -29.5042 -7.23224 -82.9861
rradius 33.1701
rwrist 29.3031
rhand -27.7938 -29.921
rfingers 7.12502
rthumb -1.18676 -59.8975
lclavicle -3.97569e-016 -4.37326e-015
lhumerus -45.0188 -13.6229 92.3503
lradius 39.3508
lwrist 30.6734
lhand -25.3392 -8.47077
lfingers 7.12502
lthumb 1.18399 21.5057
rfemur -15.847 -2.30543 20.3056
rtibia 19.4091
rfoot -7.81908 0.182533
rtoes 17.9308
lfemur -16.7387 6.55844 -17.5194
ltibia 19.7764
lfoot -3.87465 5.42493
ltoes -1.20146
412
root 0.323715 18.0415 3.76614 10.5942 1.52859 -1.76887
lowerback -1.09418 0.493254 -0.184894
upperback 2.09911 0.611317 2.11598
thorax 2.74338 0.276946 2.29967
lowerneck -11.0887 -1.18791 -2.32839
upperneck 32.1871 -1.52296 1.2198
head 12.5146 -0.78733 0.667938
rclavicle -5.46658e-015 -1.19271e-015
rhumerus -29.0737 -7.94682 -82.9001
rradius 32.4494
rwrist 30.0594
rhand -27.8486 -30.074
rfingers 7.12502
rthumb -1.23965 -60.0501
lclavicle -5.46658e-015 -1.19271e-015
lhumerus -44.6982 -13.3618 92.1831
lradius 37.591
lwrist 29.1603
lhand -25.0185 -8.16962
lfingers 7.12502
lthumb 1.49366 21.8049
rfemur -15.8459 -2.21377 20.1268
rtibia 19.3964
rfoot -8.13317 0.222817
rtoes 17.6487
lfemur -16.6478 6.65221 -17.6841
ltibia 19.5955
lfoot -4.09602 5.40931
ltoes -1.2021
413
root 0.317878 18.0262 3.7829 10.6629 1.52414 -1.60932
lowerback -0.949273 0.46497 -0.397603
upperback 2.12177 0.58195 2.01398
thorax 2.68519 0.259223 2.31164
lowerneck -11.1492 -1.16512 -2.37653
upperneck 32.3342 -1.52309 1.35886
head 12.59 -0.775959 0.729934
rclavicle 6.36111e-015 -6.36111e-015
rhumerus -28.6849 -8.65619 -82.8358
rradius 31.795
rwrist 30.6736
rhand -27.8917 -30.1909
rfingers 7.12502
rthumb -1.28133 -60.1668
lclavicle 6.36111e-015 -6.36111e-015
lhumerus -44.3028 -12.9745 91.9098
lradius 35.8136
lwrist 27.5749
lhand -24.5871 -7.68465
lfingers 7.12502
lthumb 1.91034 22.2865
rfemur -15.8483 -2.12839 19.9324
rtibia 19.4234
rfoot -8.45525 0.245815
rtoes 17.3985
lfemur -16.5577 6.68275 -17.8462
ltibia 19.4321
lfoot -4.31351 5.39569
ltoes -1.19772
